<svg width="42" height="92" viewBox="0 0 42 92" fill="none" xmlns="http://www.w3.org/2000/svg">
<rect width="42" height="92" rx="20" fill="black"/>
<g clip-path="url(#clip0_313_52)">
<path d="M28.5 21H26C26 19.6739 25.4732 18.4021 24.5355 17.4645C23.5979 16.5268 22.3261 16 21 16C19.6739 16 18.4021 16.5268 17.4645 17.4645C16.5268 18.4021 16 19.6739 16 21H13.5C12.837 21 12.2011 21.2634 11.7322 21.7322C11.2634 22.2011 11 22.837 11 23.5V31.8333C11.0013 32.938 11.4407 33.997 12.2218 34.7782C13.003 35.5593 14.062 35.9987 15.1667 36H26.8333C27.938 35.9987 28.997 35.5593 29.7782 34.7782C30.5593 33.997 30.9987 32.938 31 31.8333V23.5C31 22.837 30.7366 22.2011 30.2678 21.7322C29.7989 21.2634 29.163 21 28.5 21ZM21 17.6667C21.8841 17.6667 22.7319 18.0179 23.357 18.643C23.9821 19.2681 24.3333 20.1159 24.3333 21H17.6667C17.6667 20.1159 18.0179 19.2681 18.643 18.643C19.2681 18.0179 20.1159 17.6667 21 17.6667V17.6667ZM29.3333 31.8333C29.3333 32.4964 29.0699 33.1323 28.6011 33.6011C28.1323 34.0699 27.4964 34.3333 26.8333 34.3333H15.1667C14.5036 34.3333 13.8677 34.0699 13.3989 33.6011C12.9301 33.1323 12.6667 32.4964 12.6667 31.8333V23.5C12.6667 23.279 12.7545 23.067 12.9107 22.9107C13.067 22.7545 13.279 22.6667 13.5 22.6667H16V24.3333C16 24.5543 16.0878 24.7663 16.2441 24.9226C16.4004 25.0789 16.6123 25.1667 16.8333 25.1667C17.0543 25.1667 17.2663 25.0789 17.4226 24.9226C17.5789 24.7663 17.6667 24.5543 17.6667 24.3333V22.6667H24.3333V24.3333C24.3333 24.5543 24.4211 24.7663 24.5774 24.9226C24.7337 25.0789 24.9457 25.1667 25.1667 25.1667C25.3877 25.1667 25.5996 25.0789 25.7559 24.9226C25.9122 24.7663 26 24.5543 26 24.3333V22.6667H28.5C28.721 22.6667 28.933 22.7545 29.0893 22.9107C29.2455 23.067 29.3333 23.279 29.3333 23.5V31.8333Z" fill="white"/>
</g>
<path d="M27.7099 50.21C27.6169 50.1163 27.5063 50.0419 27.3844 49.9911C27.2626 49.9403 27.1319 49.9142 26.9999 49.9142C26.8679 49.9142 26.7371 49.9403 26.6153 49.9911C26.4934 50.0419 26.3828 50.1163 26.2899 50.21L21.7099 54.79C21.6169 54.8837 21.5063 54.9581 21.3844 55.0089C21.2626 55.0596 21.1319 55.0858 20.9999 55.0858C20.8679 55.0858 20.7371 55.0596 20.6153 55.0089C20.4934 54.9581 20.3828 54.8837 20.2899 54.79L15.7099 50.21C15.6169 50.1163 15.5063 50.0419 15.3844 49.9911C15.2626 49.9403 15.1319 49.9142 14.9999 49.9142C14.8678 49.9142 14.7371 49.9403 14.6153 49.9911C14.4934 50.0419 14.3828 50.1163 14.2899 50.21C14.1036 50.3974 13.9991 50.6508 13.9991 50.915C13.9991 51.1792 14.1036 51.4326 14.2899 51.62L18.8799 56.21C19.4424 56.7718 20.2049 57.0873 20.9999 57.0873C21.7949 57.0873 22.5574 56.7718 23.1199 56.21L27.7099 51.62C27.8961 51.4326 28.0007 51.1792 28.0007 50.915C28.0007 50.6508 27.8961 50.3974 27.7099 50.21Z" fill="#545454"/>
<path d="M27.7099 66.21C27.6169 66.1163 27.5063 66.0419 27.3844 65.9911C27.2626 65.9403 27.1319 65.9142 26.9999 65.9142C26.8679 65.9142 26.7371 65.9403 26.6153 65.9911C26.4934 66.0419 26.3828 66.1163 26.2899 66.21L21.7099 70.79C21.6169 70.8837 21.5063 70.9581 21.3844 71.0089C21.2626 71.0596 21.1319 71.0858 20.9999 71.0858C20.8679 71.0858 20.7371 71.0596 20.6153 71.0089C20.4934 70.9581 20.3828 70.8837 20.2899 70.79L15.7099 66.21C15.6169 66.1163 15.5063 66.0419 15.3844 65.9911C15.2626 65.9403 15.1319 65.9142 14.9999 65.9142C14.8678 65.9142 14.7371 65.9403 14.6153 65.9911C14.4934 66.0419 14.3828 66.1163 14.2899 66.21C14.1036 66.3974 13.9991 66.6508 13.9991 66.915C13.9991 67.1792 14.1036 67.4326 14.2899 67.62L18.8799 72.21C19.4424 72.7718 20.2049 73.0873 20.9999 73.0873C21.7949 73.0873 22.5574 72.7718 23.1199 72.21L27.7099 67.62C27.8961 67.4326 28.0007 67.1792 28.0007 66.915C28.0007 66.6508 27.8961 66.3974 27.7099 66.21Z" fill="white"/>
<path d="M27.7099 58.21C27.6169 58.1163 27.5063 58.0419 27.3844 57.9911C27.2626 57.9403 27.1319 57.9142 26.9999 57.9142C26.8679 57.9142 26.7371 57.9403 26.6153 57.9911C26.4934 58.0419 26.3828 58.1163 26.2899 58.21L21.7099 62.79C21.6169 62.8837 21.5063 62.9581 21.3844 63.0089C21.2626 63.0596 21.1319 63.0858 20.9999 63.0858C20.8679 63.0858 20.7371 63.0596 20.6153 63.0089C20.4934 62.9581 20.3828 62.8837 20.2899 62.79L15.7099 58.21C15.6169 58.1163 15.5063 58.0419 15.3844 57.9911C15.2626 57.9403 15.1319 57.9142 14.9999 57.9142C14.8678 57.9142 14.7371 57.9403 14.6153 57.9911C14.4934 58.0419 14.3828 58.1163 14.2899 58.21C14.1036 58.3974 13.9991 58.6508 13.9991 58.915C13.9991 59.1792 14.1036 59.4326 14.2899 59.62L18.8799 64.21C19.4424 64.7718 20.2049 65.0873 20.9999 65.0873C21.7949 65.0873 22.5574 64.7718 23.1199 64.21L27.7099 59.62C27.8961 59.4326 28.0007 59.1792 28.0007 58.915C28.0007 58.6508 27.8961 58.3974 27.7099 58.21Z" fill="#929292"/>
<defs>
<clipPath id="clip0_313_52">
<rect width="20" height="20" fill="white" transform="translate(11 16)"/>
</clipPath>
</defs>
</svg>
