<svg width="36" height="34" viewBox="0 0 36 34" fill="none" xmlns="http://www.w3.org/2000/svg">
<rect x="0.5" y="0.5" width="35" height="33" rx="7.5" stroke="#374957" stroke-opacity="0.2"/>
<path d="M25 16H15L18.29 12.71C18.3837 12.617 18.4581 12.5064 18.5089 12.3846C18.5597 12.2627 18.5858 12.132 18.5858 12C18.5858 11.868 18.5597 11.7373 18.5089 11.6154C18.4581 11.4936 18.3837 11.383 18.29 11.29C18.1026 11.1037 17.8492 10.9992 17.585 10.9992C17.3208 10.9992 17.0674 11.1037 16.88 11.29L12.59 15.59C12.2144 15.9633 12.0022 16.4704 12 17C12.0049 17.5261 12.2168 18.0291 12.59 18.4L16.88 22.7C16.9732 22.7926 17.0838 22.8659 17.2054 22.9157C17.3269 22.9656 17.4571 22.991 17.5885 22.9905C17.7199 22.9901 17.8499 22.9637 17.9712 22.913C18.0924 22.8623 18.2024 22.7882 18.295 22.695C18.3876 22.6017 18.4609 22.4912 18.5107 22.3696C18.5606 22.248 18.586 22.1178 18.5856 21.9864C18.5851 21.8551 18.5588 21.725 18.508 21.6038C18.4573 21.4826 18.3832 21.3726 18.29 21.28L15 18H25C25.2652 18 25.5196 17.8946 25.7071 17.7071C25.8946 17.5196 26 17.2652 26 17C26 16.7348 25.8946 16.4804 25.7071 16.2929C25.5196 16.1054 25.2652 16 25 16Z" fill="black"/>
</svg>
