<svg width="36" height="34" viewBox="0 0 36 34" fill="none" xmlns="http://www.w3.org/2000/svg">
<rect x="0.5" y="0.5" width="35" height="33" rx="7.5" stroke="#374957" stroke-opacity="0.2"/>
<g clip-path="url(#clip0_305_47)">
<path d="M25.5 11H23C23 9.67392 22.4732 8.40215 21.5355 7.46447C20.5979 6.52678 19.3261 6 18 6C16.6739 6 15.4021 6.52678 14.4645 7.46447C13.5268 8.40215 13 9.67392 13 11H10.5C9.83696 11 9.20107 11.2634 8.73223 11.7322C8.26339 12.2011 8 12.837 8 13.5V21.8333C8.00132 22.938 8.44073 23.997 9.22185 24.7782C10.003 25.5593 11.062 25.9987 12.1667 26H23.8333C24.938 25.9987 25.997 25.5593 26.7782 24.7782C27.5593 23.997 27.9987 22.938 28 21.8333V13.5C28 12.837 27.7366 12.2011 27.2678 11.7322C26.7989 11.2634 26.163 11 25.5 11ZM18 7.66667C18.8841 7.66667 19.7319 8.01786 20.357 8.64298C20.9821 9.2681 21.3333 10.1159 21.3333 11H14.6667C14.6667 10.1159 15.0179 9.2681 15.643 8.64298C16.2681 8.01786 17.1159 7.66667 18 7.66667V7.66667ZM26.3333 21.8333C26.3333 22.4964 26.0699 23.1323 25.6011 23.6011C25.1323 24.0699 24.4964 24.3333 23.8333 24.3333H12.1667C11.5036 24.3333 10.8677 24.0699 10.3989 23.6011C9.93006 23.1323 9.66667 22.4964 9.66667 21.8333V13.5C9.66667 13.279 9.75446 13.067 9.91074 12.9107C10.067 12.7545 10.279 12.6667 10.5 12.6667H13V14.3333C13 14.5543 13.0878 14.7663 13.2441 14.9226C13.4004 15.0789 13.6123 15.1667 13.8333 15.1667C14.0543 15.1667 14.2663 15.0789 14.4226 14.9226C14.5789 14.7663 14.6667 14.5543 14.6667 14.3333V12.6667H21.3333V14.3333C21.3333 14.5543 21.4211 14.7663 21.5774 14.9226C21.7337 15.0789 21.9457 15.1667 22.1667 15.1667C22.3877 15.1667 22.5996 15.0789 22.7559 14.9226C22.9122 14.7663 23 14.5543 23 14.3333V12.6667H25.5C25.721 12.6667 25.933 12.7545 26.0893 12.9107C26.2455 13.067 26.3333 13.279 26.3333 13.5V21.8333Z" fill="black"/>
</g>
<defs>
<clipPath id="clip0_305_47">
<rect width="20" height="20" fill="white" transform="translate(8 6)"/>
</clipPath>
</defs>
</svg>
