<svg width="36" height="34" viewBox="0 0 36 34" fill="none" xmlns="http://www.w3.org/2000/svg">
<rect x="0.5" y="0.5" width="35" height="33" rx="7.5" stroke="#374957" stroke-opacity="0.2"/>
<path d="M8.83333 12H27.1667C27.3877 12 27.5996 11.9122 27.7559 11.7559C27.9122 11.5996 28 11.3877 28 11.1667C28 10.9457 27.9122 10.7337 27.7559 10.5774C27.5996 10.4211 27.3877 10.3333 27.1667 10.3333H8.83333C8.61232 10.3333 8.40036 10.4211 8.24408 10.5774C8.0878 10.7337 8 10.9457 8 11.1667C8 11.3877 8.0878 11.5996 8.24408 11.7559C8.40036 11.9122 8.61232 12 8.83333 12V12Z" fill="black"/>
<path d="M8.83333 16.1667H20.5C20.721 16.1667 20.933 16.0789 21.0893 15.9226C21.2455 15.7663 21.3333 15.5543 21.3333 15.3333C21.3333 15.1123 21.2455 14.9004 21.0893 14.7441C20.933 14.5878 20.721 14.5 20.5 14.5H8.83333C8.61232 14.5 8.40036 14.5878 8.24408 14.7441C8.0878 14.9004 8 15.1123 8 15.3333C8 15.5543 8.0878 15.7663 8.24408 15.9226C8.40036 16.0789 8.61232 16.1667 8.83333 16.1667V16.1667Z" fill="black"/>
<path d="M20.5 22.8333H8.83333C8.61232 22.8333 8.40036 22.9211 8.24408 23.0774C8.0878 23.2337 8 23.4456 8 23.6667C8 23.8877 8.0878 24.0996 8.24408 24.2559C8.40036 24.4122 8.61232 24.5 8.83333 24.5H20.5C20.721 24.5 20.933 24.4122 21.0893 24.2559C21.2455 24.0996 21.3333 23.8877 21.3333 23.6667C21.3333 23.4456 21.2455 23.2337 21.0893 23.0774C20.933 22.9211 20.721 22.8333 20.5 22.8333Z" fill="black"/>
<path d="M27.1667 18.6667H8.83333C8.61232 18.6667 8.40036 18.7545 8.24408 18.9108C8.0878 19.067 8 19.279 8 19.5C8 19.721 8.0878 19.933 8.24408 20.0893C8.40036 20.2456 8.61232 20.3334 8.83333 20.3334H27.1667C27.3877 20.3334 27.5996 20.2456 27.7559 20.0893C27.9122 19.933 28 19.721 28 19.5C28 19.279 27.9122 19.067 27.7559 18.9108C27.5996 18.7545 27.3877 18.6667 27.1667 18.6667Z" fill="black"/>
</svg>
